# Alias OBJ Model File
# Exported from SketchUp, (c) 2000-2012 Trimble Navigation Limited
# File units = inches

mtllib bathroom.mtl

g Mesh1 Bathroom_basic1 Model

usemtl FrontColor
v -0.00289033 0.125 -0.0291335
vt 0 0
vn 0 0 1
v 135.997 0.125 -0.0291335
vt 136 0
v 135.997 96.125 -0.0291335
vt 136 96
v -0.00289033 96.125 -0.0291335
vt 0 96
f 1/1/1 2/2/1 3/3/1 4/4/1 

vn 0 -1 -0
v 0.982736 0.125 -1.04351
vt -0.985627 1.01437
vt -136 0
f 1/1/2 5/5/2 2/6/2

v 0.982736 0.125 -59.0435
vt -0.985627 59.0144
f 5/5/2 1/1/2 6/7/2

v -0.00289033 0.125 -60.0291
vt 0 60
f 7/8/2 6/7/2 1/1/2

v 135.997 0.125 -60.0291
vt -136 60
f 6/7/2 7/8/2 8/9/2

vn 0 0 -1
v 71.9827 36.125 -60.0291
vt -71.9856 36
f 7/1/3 9/10/3 8/6/3

v -0.00289033 96.125 -60.0291
f 9/10/3 7/1/3 10/4/3

vt -60 0
vn -1 0 -0
vt -60 96
f 7/11/4 1/1/4 4/4/4 10/12/4 

vn 0 1 -0
v 0.982736 96.125 -1.04351
vt 0.985627 1.01437
f 4/1/5 11/13/5 10/8/5

f 11/13/5 4/1/5 3/2/5

v 134.983 96.125 -1.04351
vt 134.986 1.01437
f 11/13/5 3/2/5 12/14/5

v 134.983 96.125 -59.0435
vt 134.986 59.0144
f 12/14/5 3/2/5 13/15/5

v 135.997 96.125 -60.0291
vt 136 60
f 14/16/5 13/15/5 3/2/5

v 0.982736 96.125 -59.0435
vt 0.985627 59.0144
f 14/16/5 15/17/5 13/15/5

f 10/8/5 15/17/5 14/16/5

f 15/17/5 10/8/5 11/13/5

vt 1.01437 96
vn 1 0 -0
v 0.982736 14.125 -1.04351
vt 1.01437 14
v 0.982736 14.125 -59.0435
vt 59.0144 14
vt 59.0144 96
f 11/18/6 16/19/6 17/20/6 15/21/6 

v 134.983 0.125 -1.04351
vt -134.986 0
v 29.9827 0.125 -1.04351
vt -29.9856 0
v 29.9827 14.125 -1.04351
vt -29.9856 14
vt -0.985627 14
vt -0.985627 96
vt -134.986 96
f 18/22/3 19/23/3 20/24/3 16/25/3 11/26/3 12/27/3 

vt -29.9856 1.01437
vt -134.986 1.01437
f 2/6/2 19/28/2 18/29/2

f 2/6/2 5/5/2 19/28/2

vt -0.985627 0
f 19/23/3 5/30/3 16/25/3 20/24/3 

vt 1.01437 0
vt 59.0144 0
f 5/31/6 6/32/6 17/20/6 16/19/6 

vt 0.985627 0
v 29.9827 0.125 -59.0435
vt 29.9856 0
v 29.9827 14.125 -59.0435
vt 29.9856 14
vt 0.985627 14
f 6/33/1 21/34/1 22/35/1 17/36/1 

vt -29.9856 59.0144
f 6/7/2 8/9/2 21/37/2

v 71.9827 0.125 -59.0435
vt -71.9856 59.0144
f 21/37/2 8/9/2 23/38/2

v 134.983 0.125 -59.0435
vt -134.986 59.0144
f 23/38/2 8/9/2 24/39/2

v 134.983 0.125 -27.683
vt -134.986 27.6539
f 24/39/2 8/9/2 25/40/2

f 2/6/2 25/40/2 8/9/2

f 2/6/2 18/29/2 25/40/2

vt 29.9856 1.01437
vt 134.986 27.6539
v 71.9827 0.125 -27.683
vt 71.9856 27.6539
vt 71.9856 59.0144
vt 29.9856 59.0144
f 19/41/5 18/14/5 25/42/5 26/43/5 23/44/5 21/45/5 

vt -1.01437 96
vn -1 -2.03213e-16 -3.63592e-16
vt -59.0144 96
v 134.983 72.125 -59.0435
vt -59.0144 72
v 134.983 72.125 -60.0291
vt -60 72
v 134.983 36.125 -60.0291
vt -60 36
v 134.983 36.125 -59.0435
vt -59.0144 36
v 134.983 36.125 -27.683
vt -27.6539 36
vt -27.6539 -2.74308e-14
vt -1.01437 -2.74308e-14
f 12/46/7 13/47/7 27/48/7 28/49/7 29/50/7 30/51/7 31/52/7 25/53/7 18/54/7 

v 71.9827 36.125 -59.0435
vt 71.9856 36
vn 2.36343e-17 1.84798e-17 1
v 71.9827 72.125 -59.0435
vt 71.9856 72
vt 134.986 72
vt 134.986 96
vt 0.985627 96
vt 29.9856 1.09057e-15
vt 71.9856 1.09057e-15
f 32/55/8 33/56/8 27/57/8 13/58/8 15/59/8 17/36/8 22/35/8 21/60/8 23/61/8 

vt 59.0144 72
vt 59.0144 36
vt 60 36
v 71.9827 72.125 -60.0291
vt 60 72
f 33/62/6 32/63/6 9/64/6 34/65/6 

vn 0 1 -1.38088e-16
vt 134.986 60
vt 71.9856 60
f 32/44/9 30/15/9 29/66/9 9/67/9 

v 71.9827 36.125 -27.683
vn 0 1 -2.26573e-16
f 35/43/10 31/42/10 30/15/10 32/44/10 

vt 71.9856 0
vt 134.986 0
vt 134.986 36
f 26/68/1 25/69/1 31/70/1 35/55/1 

vt -59.0144 0
vt -27.6539 0
f 31/52/4 30/51/4 24/71/4 25/72/4 

f 24/69/1 30/70/1 32/55/1 23/68/1 

f 35/52/4 32/51/4 23/71/4 26/72/4 

vt -134.986 36
f 29/73/3 8/6/3 9/10/3

vt -136 96
f 8/6/3 29/73/3 14/74/3

vt -134.986 72
f 14/74/3 29/73/3 28/75/3

f 14/74/3 28/75/3 10/4/3

vt -71.9856 72
f 34/76/3 10/4/3 28/75/3

f 9/10/3 10/4/3 34/76/3

vn 0 -1 1.38088e-16
vt -71.9856 60
vt -134.986 60
f 27/39/11 33/38/11 34/77/11 28/78/11 

vt 60 0
vt 60 96
f 2/1/6 8/79/6 14/80/6 3/4/6 

v 4.98274 14.125 -55.0435
vt 4.98563 55.0144
f 17/17/5 36/81/5 22/45/5

v 4.98274 14.125 -5.04351
vt 4.98563 5.01437
f 36/81/5 17/17/5 37/82/5

f 16/13/5 37/82/5 17/17/5

f 37/82/5 16/13/5 20/41/5

v 25.9827 14.125 -5.04351
vt 25.9856 5.01437
f 37/82/5 20/41/5 38/83/5

v 25.9827 14.125 -55.0435
vt 25.9856 55.0144
f 38/83/5 20/41/5 39/84/5

f 22/45/5 39/84/5 20/41/5

f 22/45/5 36/81/5 39/84/5

vt 25.9856 14
vt 4.98563 14
v 4.98274 2.2282 -55.0435
vt 4.98563 2.1032
v 25.9827 2.2282 -55.0435
vt 25.9856 2.1032
f 39/85/1 36/86/1 40/87/1 41/88/1 

vt 55.0144 14
vt 5.01437 14
v 4.98274 2.2282 -5.04351
vt 5.01437 2.1032
vt 55.0144 2.1032
f 36/89/6 37/90/6 42/91/6 40/92/6 

vt -4.98563 14
vt -25.9856 14
v 25.9827 2.2282 -5.04351
vt -25.9856 2.1032
vt -4.98563 2.1032
f 37/93/3 38/94/3 43/95/3 42/96/3 

vt -5.01437 14
vt -55.0144 14
vt -55.0144 2.1032
vt -5.01437 2.1032
f 38/97/4 39/98/4 41/99/4 43/100/4 

f 42/82/5 43/83/5 41/84/5 40/81/5 

f 19/31/6 21/32/6 22/20/6 20/19/6 

g Mesh2 Bathroom_basic1 Model

v 26.1453 14.125 -115.57
vt 26.1482 14
v 5.14528 14.125 -115.57
vt 5.14817 14
v 5.14528 2.2282 -115.57
vt 5.14817 2.1032
v 26.1453 2.2282 -115.57
vt 26.1482 2.1032
f 44/101/1 45/102/1 46/103/1 47/104/1 

v 30.1453 14.125 -119.57
vt 30.1482 119.541
vt 5.14817 115.541
vt 26.1482 115.541
f 48/105/5 45/106/5 44/107/5

v 1.14528 14.125 -119.57
vt 1.14817 119.541
f 49/108/5 45/106/5 48/105/5

v 5.14528 14.125 -65.5705
vt 5.14817 65.5414
f 45/106/5 49/108/5 50/109/5

v 1.14528 14.125 -61.5705
vt 1.14817 61.5414
f 51/110/5 50/109/5 49/108/5

v 30.1453 14.125 -61.5705
vt 30.1482 61.5414
f 50/109/5 51/110/5 52/111/5

v 30.1453 0.125 -61.5705
vt -30.1482 0
v 1.14528 0.125 -61.5705
vt -1.14817 0
vt -1.14817 14
vt -30.1482 14
f 53/112/3 54/113/3 51/114/3 52/115/3 

v 136.16 0.125 -60.5849
vt -136.163 60.5557
vt -1.14817 61.5414
vt -30.1482 61.5414
f 55/116/2 54/117/2 53/118/2

v 0.159654 0.125 -60.5849
vt -0.162544 60.5557
f 56/119/2 54/117/2 55/116/2

v 1.14528 0.125 -119.57
vt -1.14817 119.541
f 54/117/2 56/119/2 57/120/2

v 0.159654 0.125 -120.585
vt -0.162544 120.556
f 58/121/2 57/120/2 56/119/2

v 136.16 0.125 -120.585
vt -136.163 120.556
f 57/120/2 58/121/2 59/122/2

vt -136.163 0
vt -0.162544 0
v 0.159654 96.125 -120.585
vt -0.162544 96
v 136.16 96.125 -120.585
vt -136.163 96
f 59/123/3 58/124/3 60/125/3 61/126/3 

vt -120.556 0
vt -60.5557 0
v 0.159654 96.125 -60.5849
vt -60.5557 96
vt -120.556 96
f 58/127/4 56/128/4 62/129/4 60/130/4 

vt 0.162544 0
v 72.1453 36.125 -60.5849
vt 72.1482 36
vt 0.162544 96
f 56/131/1 63/132/1 62/133/1

v 135.145 36.125 -60.5849
vt 135.148 36
f 63/132/1 56/131/1 64/134/1

vt 136.163 0
f 55/135/1 64/134/1 56/131/1

v 136.16 96.125 -60.5849
vt 136.163 96
f 64/134/1 55/135/1 65/136/1

vt 60.5557 0
vt 120.556 0
vt 120.556 96
vt 60.5557 96
f 55/137/6 59/138/6 61/139/6 65/140/6 

v 135.145 0.125 -61.5705
vt -135.148 61.5414
f 55/116/2 66/141/2 59/122/2

v 72.1453 0.125 -61.5705
vt -72.1482 61.5414
f 55/116/2 67/142/2 66/141/2

f 55/116/2 53/118/2 67/142/2

v 135.145 0.125 -119.57
vt 135.148 119.541
v 30.1453 0.125 -119.57
vt 72.1482 61.5414
v 72.1453 0.125 -92.931
vt 72.1482 92.9019
v 135.145 0.125 -92.931
vt 135.148 92.9019
f 68/143/5 69/105/5 53/111/5 67/144/5 70/145/5 71/146/5 

vt 30.1482 0
vt 135.148 0
v 135.145 96.125 -119.57
vt 135.148 96
v 1.14528 96.125 -119.57
vt 1.14817 96
vt 1.14817 14
vt 30.1482 14
f 69/147/1 68/148/1 72/149/1 73/150/1 49/151/1 48/152/1 

vt -30.1482 119.541
vt -135.148 119.541
f 69/153/2 59/122/2 68/154/2

f 57/120/2 59/122/2 69/153/2

vt 1.14817 0
f 57/155/1 69/147/1 48/152/1 49/151/1 

vt 61.5414 0
vt 119.541 0
vt 119.541 14
vt 61.5414 14
f 53/156/6 69/157/6 48/158/6 52/159/6 

f 48/105/5 44/107/5 52/111/5

v 26.1453 14.125 -65.5705
vt 26.1482 65.5414
f 74/160/5 52/111/5 44/107/5

f 50/109/5 52/111/5 74/160/5

vt -5.14817 14
vt -26.1482 14
v 26.1453 2.2282 -65.5705
vt -26.1482 2.1032
v 5.14528 2.2282 -65.5705
vt -5.14817 2.1032
f 50/161/3 74/162/3 75/163/3 76/164/3 

vt -65.5414 14
vt -115.541 14
vt -115.541 2.1032
vt -65.5414 2.1032
f 74/165/4 44/166/4 47/167/4 75/168/4 

f 47/107/5 46/106/5 76/109/5 75/160/5 

vt 115.541 14
vt 65.5414 14
vt 65.5414 2.1032
vt 115.541 2.1032
f 45/169/6 50/170/6 76/171/6 46/172/6 

v 72.1453 72.125 -61.5705
vt -72.1482 72
vn 9.45371e-17 7.39192e-17 -1
v 72.1453 36.125 -61.5705
vt -72.1482 36
vt -72.1482 -4.54909e-15
vt -30.1482 -4.54909e-15
v 1.14528 96.125 -61.5705
vt -1.14817 96
v 135.145 96.125 -61.5705
vt -135.148 96
v 135.145 72.125 -61.5705
vt -135.148 72
f 77/173/12 78/174/12 67/175/12 53/176/12 52/115/12 51/114/12 79/177/12 80/178/12 81/179/12 

vt 61.5414 36
vt 61.5414 72
v 72.1453 72.125 -60.5849
vt 60.5557 72
vt 60.5557 36
f 78/180/6 77/181/6 82/182/6 63/183/6 

v 135.145 72.125 -60.5849
vt -135.148 60.5557
vt -72.1482 60.5557
f 77/142/2 81/141/2 83/184/2 82/185/2 

vt -61.5414 96
vn -1 -3.85533e-16 7.78007e-16
vt -119.541 96
vt -119.541 -5.2104e-14
vt -92.9019 -5.2104e-14
v 135.145 36.125 -92.931
vt -92.9019 36
v 135.145 36.125 -61.5705
vt -61.5414 36
vt -60.5557 36
vt -60.5557 72
vt -61.5414 72
f 80/186/13 72/187/13 68/188/13 71/189/13 84/190/13 85/191/13 64/192/13 83/193/13 81/194/13 

vt 135.148 61.5414
vt 136.163 60.5557
f 80/195/5 65/196/5 72/143/5

f 79/110/5 65/196/5 80/195/5

vt 0.162544 60.5557
f 79/110/5 62/197/5 65/196/5

vt 0.162544 120.556
f 62/197/5 79/110/5 60/198/5

f 73/108/5 60/198/5 79/110/5

vt 136.163 120.556
f 60/198/5 73/108/5 61/199/5

f 61/199/5 73/108/5 72/143/5

f 61/199/5 72/143/5 65/196/5

vt 119.541 96
vt 61.5414 96
f 49/158/6 73/200/6 79/201/6 51/159/6 

f 54/156/6 57/157/6 49/158/6 51/159/6 

vt 72.1482 72
f 62/133/1 82/202/1 65/136/1

f 62/133/1 63/132/1 82/202/1

vt 135.148 72
f 83/203/1 65/136/1 82/202/1

f 64/134/1 65/136/1 83/203/1

vt -135.148 92.9019
f 68/154/2 59/122/2 71/204/2

f 71/204/2 59/122/2 66/141/2

vt -92.9019 0
vt -61.5414 0
f 85/191/4 84/190/4 71/205/4 66/206/4 

vn 0 1 2.26573e-16
v 72.1453 36.125 -92.931
f 84/146/14 86/145/14 78/144/14 85/195/14 

vt -135.148 0
vt -72.1482 0
vt -135.148 36
f 71/207/3 70/208/3 86/174/3 84/209/3 

f 78/191/4 86/190/4 70/205/4 67/206/4 

f 85/209/3 66/207/3 67/208/3 78/174/3 

vt 72.1482 60.5557
vt 135.148 60.5557
f 85/195/5 78/144/5 63/210/5 64/211/5 

